<?xml version="1.0" standalone="no"?>
<!DOCTYPE svg PUBLIC "-//W3C//DTD SVG 20010904//EN"
 "http://www.w3.org/TR/2001/REC-SVG-20010904/DTD/svg10.dtd">
<svg version="1.0" xmlns="http://www.w3.org/2000/svg"
 width="225.000000pt" height="225.000000pt" viewBox="0 0 225.000000 225.000000"
 preserveAspectRatio="xMidYMid meet">

<g transform="translate(0.000000,225.000000) scale(0.100000,-0.100000)"
fill="#000000" stroke="none">
<path d="M975 2239 c-366 -46 -713 -302 -870 -642 -136 -294 -136 -650 0 -944
103 -224 306 -430 529 -538 373 -181 826 -140 1152 103 570 425 621 1235 108
1722 -248 236 -574 342 -919 299z m342 -54 c516 -98 883 -539 883 -1060 0
-597 -478 -1075 -1075 -1075 -597 0 -1075 478 -1075 1075 0 180 35 327 118
491 147 291 429 503 758 568 95 19 294 19 391 1z"/>
<path d="M813 1851 c-17 -11 -44 -41 -60 -68 l-28 -48 0 -325 c0 -290 2 -330
18 -372 34 -89 116 -132 205 -109 97 27 134 91 140 244 l4 107 -71 0 -71 0 0
-64 c0 -109 -34 -163 -73 -115 -17 21 -18 44 -15 299 3 290 6 310 48 310 23 0
32 -22 39 -95 l6 -60 65 0 65 0 3 72 c5 118 -27 191 -99 228 -41 22 -137 19
-176 -4z"/>
<path d="M482 1543 c2 -55 6 -68 21 -71 14 -3 17 4 17 40 l0 43 36 -42 c52
-63 64 -58 64 27 0 56 -3 70 -15 70 -11 0 -15 -11 -15 -42 l0 -43 -36 43 c-20
23 -44 42 -55 42 -18 0 -20 -6 -17 -67z"/>
<path d="M1252 1488 c-7 -7 -12 -27 -12 -45 l0 -33 120 0 c100 0 120 3 120 15
0 11 -12 15 -51 15 -31 0 -48 4 -44 10 3 6 19 10 35 10 38 0 60 9 60 26 0 17
-95 20 -105 4 -4 -7 -12 -7 -25 0 -26 14 -83 13 -98 -2z m88 -38 c0 -5 -13
-10 -30 -10 -16 0 -30 5 -30 10 0 6 14 10 30 10 17 0 30 -4 30 -10z"/>
<path d="M1550 1426 c0 -9 13 -16 33 -19 l32 -3 -32 -8 c-26 -7 -33 -14 -33
-32 l0 -24 63 24 c55 21 67 22 93 11 65 -27 74 -28 74 -6 0 13 -7 21 -17 21
-10 0 -25 5 -33 11 -11 8 -7 9 18 5 27 -5 32 -3 32 14 0 19 -7 20 -115 20 -93
0 -115 -3 -115 -14z"/>
<path d="M496 1398 c4 -7 16 -25 26 -40 10 -14 18 -40 18 -57 0 -21 5 -31 15
-31 11 0 15 11 15 36 0 23 9 47 26 70 l26 34 -22 0 c-13 0 -29 -8 -36 -17 -13
-17 -15 -17 -25 0 -5 9 -19 17 -30 17 -13 0 -18 -4 -13 -12z"/>
<path d="M1350 1350 c-58 -10 -106 -19 -107 -19 -2 -1 -3 -7 -3 -15 0 -18 10
-21 125 -41 114 -19 115 -19 115 5 0 13 -7 20 -19 20 -30 0 -35 19 -6 26 16 4
25 13 25 25 0 22 6 22 -130 -1z m38 -37 c-10 -2 -26 -2 -35 0 -10 3 -2 5 17 5
19 0 27 -2 18 -5z"/>
<path d="M1546 1286 c-8 -33 2 -56 25 -56 12 0 19 7 19 20 0 15 7 20 25 20 16
0 25 -6 25 -15 0 -9 9 -15 25 -15 16 0 25 6 25 15 0 9 9 15 25 15 18 0 25 -5
25 -20 0 -13 7 -20 20 -20 17 0 20 7 20 40 l0 40 -114 0 c-112 0 -114 0 -120
-24z"/>
<path d="M510 1200 c-30 -30 -27 -83 7 -110 33 -26 77 -23 81 5 2 17 -3 20
-30 20 -27 0 -34 4 -36 23 -5 32 16 55 45 47 18 -4 23 -1 23 15 0 16 -7 20
-35 20 -22 0 -43 -8 -55 -20z"/>
<path d="M1240 1201 c0 -15 13 -24 58 -37 l57 -17 -55 -16 c-43 -13 -56 -22
-58 -39 -3 -22 -1 -22 117 -22 114 0 121 1 121 20 0 18 -7 20 -57 21 l-58 1
54 12 c71 15 76 32 12 41 -69 9 -75 25 -9 22 43 -2 53 1 56 16 3 15 -8 17
-117 17 -113 0 -121 -1 -121 -19z"/>
<path d="M1743 1181 c-5 -19 -12 -21 -99 -21 -77 0 -94 -3 -94 -15 0 -12 17
-15 95 -15 78 0 95 -3 95 -15 0 -8 9 -15 21 -15 18 0 20 5 17 47 -3 49 -25 71
-35 34z"/>
<path d="M1253 849 c-7 -7 -13 -30 -13 -51 l0 -38 120 0 c113 0 120 1 120 20
0 17 -7 20 -51 20 -31 0 -48 4 -44 10 3 6 26 10 51 10 38 0 44 3 44 21 0 19
-4 20 -52 15 -67 -7 -75 -7 -123 0 -26 3 -44 1 -52 -7z m87 -39 c0 -5 -16 -10
-35 -10 -19 0 -35 5 -35 10 0 6 16 10 35 10 19 0 35 -4 35 -10z"/>
<path d="M606 830 c-170 -29 -170 -48 2 -77 l112 -19 0 23 c0 16 -6 23 -19 23
-30 0 -34 17 -6 24 16 4 25 13 25 26 0 11 -1 20 -2 19 -2 0 -52 -9 -112 -19z
m34 -40 c0 -13 -20 -13 -40 0 -12 8 -9 10 13 10 15 0 27 -4 27 -10z"/>
<path d="M790 835 c0 -11 12 -15 51 -15 61 0 57 -16 -6 -26 -35 -5 -45 -10
-45 -25 0 -17 9 -19 110 -19 61 0 113 -1 117 -2 3 -2 7 5 9 15 2 14 -6 17 -54
18 -58 1 -52 7 19 23 15 3 29 15 32 26 5 19 0 20 -114 20 -99 0 -119 -3 -119
-15z"/>
<path d="M1544 825 c-8 -34 1 -55 26 -55 13 0 20 7 20 20 0 15 7 20 25 20 16
0 25 -6 25 -15 0 -9 9 -15 25 -15 16 0 25 6 25 15 0 9 9 15 25 15 18 0 25 -5
25 -20 0 -13 7 -20 20 -20 17 0 20 7 20 40 l0 40 -115 0 c-114 0 -115 0 -121
-25z"/>
<path d="M1547 723 c-4 -3 -7 -19 -7 -35 0 -23 4 -28 25 -28 18 0 25 5 25 20
0 15 7 20 25 20 18 0 25 -5 25 -20 0 -15 7 -20 25 -20 18 0 25 5 25 20 0 15 7
20 25 20 18 0 25 -5 25 -20 0 -13 7 -20 20 -20 16 0 20 7 20 35 l0 35 -113 0
c-63 0 -117 -3 -120 -7z"/>
<path d="M1240 670 c0 -38 4 -50 15 -50 8 0 15 7 15 15 0 11 20 15 102 17 89
3 103 5 106 21 3 15 -7 17 -98 17 -80 0 -102 3 -106 15 -4 8 -12 15 -20 15
-10 0 -14 -14 -14 -50z"/>
<path d="M502 694 c-12 -8 -22 -24 -22 -34 0 -33 38 -50 115 -50 79 0 119 15
123 47 4 25 -31 53 -65 53 -16 0 -23 -6 -23 -20 0 -15 7 -20 25 -20 14 0 25
-4 25 -10 0 -6 -33 -10 -80 -10 -47 0 -80 4 -80 10 0 6 9 10 20 10 13 0 20 7
20 20 0 24 -26 26 -58 4z"/>
<path d="M790 691 c0 -11 9 -22 20 -26 11 -3 20 -11 20 -16 0 -5 -9 -9 -20 -9
-14 0 -20 -7 -20 -21 0 -19 4 -20 53 -14 125 16 182 30 185 46 2 14 -14 20
-90 33 -51 9 -105 19 -120 22 -23 5 -28 2 -28 -15z m120 -41 c-20 -13 -40 -13
-40 0 0 6 12 10 28 10 21 0 24 -2 12 -10z"/>
<path d="M1740 605 c0 -11 -20 -15 -97 -17 -79 -2 -98 -6 -98 -18 0 -12 19
-16 98 -18 77 -2 97 -6 97 -17 0 -8 9 -15 20 -15 17 0 20 7 20 50 0 43 -3 50
-20 50 -11 0 -20 -7 -20 -15z"/>
<path d="M1246 569 c-25 -37 4 -79 56 -79 16 0 41 12 61 30 34 29 77 40 77 20
0 -5 -11 -10 -24 -10 -19 0 -23 -4 -19 -20 6 -24 30 -26 61 -4 43 30 17 84
-41 84 -21 -1 -44 -11 -67 -30 -35 -31 -64 -38 -75 -20 -4 6 5 10 19 10 19 0
26 5 26 20 0 28 -54 28 -74 -1z"/>
<path d="M790 520 c0 -33 3 -40 20 -40 13 0 20 7 20 20 0 19 7 20 100 20 93 0
100 1 100 20 0 19 -7 20 -120 20 l-120 0 0 -40z"/>
</g>
</svg>
